<?xml version="1.0" standalone="no"?>
<!DOCTYPE svg PUBLIC "-//W3C//DTD SVG 20010904//EN"
 "http://www.w3.org/TR/2001/REC-SVG-20010904/DTD/svg10.dtd">
<svg version="1.0" xmlns="http://www.w3.org/2000/svg"
 width="382.000000pt" height="382.000000pt" viewBox="0 0 382.000000 382.000000"
 preserveAspectRatio="xMidYMid meet">
<metadata>
Created by potrace 1.11, written by Peter Selinger 2001-2013
</metadata>
<g transform="translate(0.000000,382.000000) scale(0.100000,-0.100000)"
fill="#000000" stroke="none">
<path d="M3105 3800 c-85 -22 -127 -40 -181 -77 -153 -104 -233 -243 -239
-415 -2 -44 -5 -81 -7 -83 -1 -1 -30 -19 -63 -38 -57 -33 -93 -53 -202 -113
-27 -15 -61 -34 -78 -44 -16 -9 -55 -31 -85 -47 -30 -16 -127 -71 -216 -121
-89 -51 -166 -92 -173 -92 -6 0 -11 -4 -11 -9 0 -5 -10 -13 -22 -17 -13 -4
-25 -10 -28 -13 -3 -4 -27 -18 -55 -32 -59 -30 -98 -52 -105 -59 -3 -3 -21
-13 -40 -22 -19 -10 -53 -28 -75 -41 -47 -28 -125 -72 -210 -117 -33 -18 -64
-35 -70 -40 -5 -4 -39 -23 -75 -42 -87 -47 -161 -89 -182 -102 -13 -8 -25 -4
-55 20 -34 27 -79 56 -93 59 -3 1 -18 8 -35 15 -16 7 -32 14 -35 14 -3 1 -11
5 -17 9 -7 5 -17 6 -22 2 -5 -3 -12 -2 -15 3 -5 9 -54 15 -133 16 -29 0 -53 5
-53 10 0 4 -6 4 -12 -1 -7 -6 -20 -10 -28 -10 -13 -1 -28 -3 -85 -16 -5 -2
-14 -5 -20 -9 -5 -3 -25 -9 -43 -13 -17 -3 -32 -10 -32 -15 0 -4 -12 -11 -26
-14 -33 -9 -43 -16 -131 -103 -113 -110 -162 -238 -149 -387 18 -210 170 -395
376 -455 25 -7 56 -17 70 -21 14 -4 40 -7 58 -6 17 1 32 -2 32 -6 0 -4 6 -5
13 -3 6 2 39 6 72 9 33 2 67 7 75 10 8 3 27 7 41 10 37 6 128 51 179 87 l43
31 36 -19 c108 -59 171 -94 347 -193 107 -61 198 -110 203 -110 5 0 11 -3 13
-7 2 -5 21 -17 43 -29 85 -45 161 -88 186 -105 14 -10 28 -16 31 -13 3 2 11
-2 18 -11 7 -8 16 -15 20 -15 5 0 42 -20 84 -44 41 -25 101 -59 133 -76 32
-17 65 -35 73 -40 8 -5 51 -29 95 -54 44 -24 105 -58 135 -75 30 -17 94 -52
142 -79 l88 -47 0 -70 c1 -415 498 -663 879 -438 251 149 331 465 177 706 -73
114 -216 212 -353 243 -142 31 -329 1 -444 -72 -46 -29 -42 -30 -164 41 -33
19 -76 43 -95 52 -19 9 -37 19 -40 22 -6 7 -83 50 -117 66 -13 5 -23 14 -23
18 0 5 -4 5 -10 2 -5 -3 -10 -1 -10 4 0 6 -5 11 -10 11 -6 0 -64 30 -128 67
-64 36 -135 76 -157 87 -22 12 -42 23 -45 26 -3 3 -25 16 -50 30 -25 13 -63
34 -85 47 -22 12 -56 31 -75 41 -19 10 -109 60 -200 112 -91 51 -223 126 -295
165 -205 114 -210 117 -217 128 -6 10 91 77 111 77 5 0 14 7 21 15 7 9 15 13
18 10 3 -3 12 1 21 9 9 8 43 28 76 46 33 17 87 47 120 66 33 19 74 42 90 50
17 8 37 19 45 24 25 16 201 114 260 145 30 16 66 37 79 47 13 10 27 15 32 12
5 -3 9 -1 9 5 0 5 18 17 40 27 22 10 40 21 40 26 0 4 5 8 11 8 6 0 112 57 235
126 123 69 226 125 230 124 4 -1 10 3 13 8 3 5 35 25 71 44 70 38 121 67 185
103 l40 24 90 -44 c101 -49 135 -57 252 -61 217 -6 404 94 515 277 88 146 86
346 -6 503 -46 79 -151 170 -246 213 -111 51 -277 65 -395 33z"/>
</g>
</svg>
